<mxfile host="app.diagrams.net" modified="2023-05-04T12:35:50.069Z" agent="Mozilla/5.0 (Windows NT 10.0; Win64; x64) AppleWebKit/537.36 (KHTML, like Gecko) Chrome/112.0.0.0 Safari/537.36" etag="X4Ca9duOsU4Vjqh-wIY1" version="21.2.7" type="device">
  <diagram name="ページ1" id="fi6jcsCbErpSlKDW4NEn">
    <mxGraphModel dx="1500" dy="773" grid="1" gridSize="10" guides="1" tooltips="1" connect="1" arrows="1" fold="1" page="1" pageScale="1" pageWidth="827" pageHeight="1169" math="0" shadow="0">
      <root>
        <mxCell id="0" />
        <mxCell id="1" parent="0" />
        <mxCell id="hPBbEiaVJsbgbCTTvSSS-58" value="" style="rounded=0;whiteSpace=wrap;html=1;" parent="1" vertex="1">
          <mxGeometry width="820" height="810" as="geometry" />
        </mxCell>
        <mxCell id="hPBbEiaVJsbgbCTTvSSS-3" value="プロジェクト" style="swimlane;childLayout=stackLayout;horizontal=1;startSize=30;horizontalStack=0;rounded=1;fontSize=14;fontStyle=0;strokeWidth=2;resizeParent=0;resizeLast=1;shadow=0;dashed=0;align=center;" parent="1" vertex="1">
          <mxGeometry x="40" y="420" width="160" height="120" as="geometry" />
        </mxCell>
        <mxCell id="hPBbEiaVJsbgbCTTvSSS-4" value="ID&#xa;作品名&#xa;URL&#xa;下書きフラグ" style="align=left;strokeColor=none;fillColor=none;spacingLeft=4;fontSize=12;verticalAlign=top;resizable=0;rotatable=0;part=1;" parent="hPBbEiaVJsbgbCTTvSSS-3" vertex="1">
          <mxGeometry y="30" width="160" height="90" as="geometry" />
        </mxCell>
        <mxCell id="hPBbEiaVJsbgbCTTvSSS-5" value="手順" style="swimlane;childLayout=stackLayout;horizontal=1;startSize=30;horizontalStack=0;rounded=1;fontSize=14;fontStyle=0;strokeWidth=2;resizeParent=0;resizeLast=1;shadow=0;dashed=0;align=center;" parent="1" vertex="1">
          <mxGeometry x="290" y="413" width="160" height="148" as="geometry">
            <mxRectangle x="336" y="40" width="70" height="30" as="alternateBounds" />
          </mxGeometry>
        </mxCell>
        <mxCell id="hPBbEiaVJsbgbCTTvSSS-6" value="ID&#xa;要素Xpath&#xa;アクションID (FK)&#xa;アクション用文字列&#xa;順序&#xa;プロジェクトID (FK)" style="align=left;strokeColor=none;fillColor=none;spacingLeft=4;fontSize=12;verticalAlign=top;resizable=0;rotatable=0;part=1;" parent="hPBbEiaVJsbgbCTTvSSS-5" vertex="1">
          <mxGeometry y="30" width="160" height="118" as="geometry" />
        </mxCell>
        <mxCell id="hPBbEiaVJsbgbCTTvSSS-17" value="アクション" style="swimlane;childLayout=stackLayout;horizontal=1;startSize=30;horizontalStack=0;rounded=1;fontSize=14;fontStyle=0;strokeWidth=2;resizeParent=0;resizeLast=1;shadow=0;dashed=0;align=center;" parent="1" vertex="1">
          <mxGeometry x="540" y="420" width="160" height="120" as="geometry" />
        </mxCell>
        <mxCell id="hPBbEiaVJsbgbCTTvSSS-18" value="ID&#xa;アクション名&#xa;" style="align=left;strokeColor=none;fillColor=none;spacingLeft=4;fontSize=12;verticalAlign=top;resizable=0;rotatable=0;part=1;" parent="hPBbEiaVJsbgbCTTvSSS-17" vertex="1">
          <mxGeometry y="30" width="160" height="90" as="geometry" />
        </mxCell>
        <mxCell id="hPBbEiaVJsbgbCTTvSSS-25" value="" style="edgeStyle=entityRelationEdgeStyle;fontSize=12;html=1;endArrow=ERoneToMany;startArrow=ERmandOne;rounded=0;exitX=1;exitY=0.25;exitDx=0;exitDy=0;entryX=0;entryY=0.25;entryDx=0;entryDy=0;" parent="1" source="hPBbEiaVJsbgbCTTvSSS-4" target="hPBbEiaVJsbgbCTTvSSS-6" edge="1">
          <mxGeometry width="100" height="100" relative="1" as="geometry">
            <mxPoint x="200" y="633.5" as="sourcePoint" />
            <mxPoint x="240" y="573" as="targetPoint" />
          </mxGeometry>
        </mxCell>
        <mxCell id="hPBbEiaVJsbgbCTTvSSS-40" value="" style="edgeStyle=entityRelationEdgeStyle;fontSize=12;html=1;endArrow=ERoneToMany;startArrow=ERmandOne;rounded=0;exitX=0;exitY=0.25;exitDx=0;exitDy=0;entryX=1;entryY=0.25;entryDx=0;entryDy=0;endFill=0;" parent="1" source="hPBbEiaVJsbgbCTTvSSS-18" target="hPBbEiaVJsbgbCTTvSSS-6" edge="1">
          <mxGeometry width="100" height="100" relative="1" as="geometry">
            <mxPoint x="500" y="413" as="sourcePoint" />
            <mxPoint x="610" y="413" as="targetPoint" />
          </mxGeometry>
        </mxCell>
        <mxCell id="hPBbEiaVJsbgbCTTvSSS-41" value="展示" style="swimlane;childLayout=stackLayout;horizontal=1;startSize=30;horizontalStack=0;rounded=1;fontSize=14;fontStyle=0;strokeWidth=2;resizeParent=0;resizeLast=1;shadow=0;dashed=0;align=center;" parent="1" vertex="1">
          <mxGeometry x="40" y="30" width="160" height="120" as="geometry" />
        </mxCell>
        <mxCell id="hPBbEiaVJsbgbCTTvSSS-42" value="ID&#xa;名前&#xa;メモ&#xa;作成日時" style="align=left;strokeColor=none;fillColor=none;spacingLeft=4;fontSize=12;verticalAlign=top;resizable=0;rotatable=0;part=1;" parent="hPBbEiaVJsbgbCTTvSSS-41" vertex="1">
          <mxGeometry y="30" width="160" height="90" as="geometry" />
        </mxCell>
        <mxCell id="hPBbEiaVJsbgbCTTvSSS-46" value="展示設定" style="swimlane;childLayout=stackLayout;horizontal=1;startSize=30;horizontalStack=0;rounded=1;fontSize=14;fontStyle=0;strokeWidth=2;resizeParent=0;resizeLast=1;shadow=0;dashed=0;align=center;" parent="1" vertex="1">
          <mxGeometry x="40" y="220" width="160" height="140" as="geometry" />
        </mxCell>
        <mxCell id="hPBbEiaVJsbgbCTTvSSS-47" value="ID&#xa;展示ID(FK)&#xa;プロジェクトID(FK)&#xa;繰り返し回数&#xa;順序" style="align=left;strokeColor=none;fillColor=none;spacingLeft=4;fontSize=12;verticalAlign=top;resizable=0;rotatable=0;part=1;" parent="hPBbEiaVJsbgbCTTvSSS-46" vertex="1">
          <mxGeometry y="30" width="160" height="110" as="geometry" />
        </mxCell>
        <mxCell id="hPBbEiaVJsbgbCTTvSSS-56" value="" style="fontSize=12;html=1;endArrow=ERoneToMany;startArrow=ERmandOne;rounded=0;exitX=0.5;exitY=1;exitDx=0;exitDy=0;entryX=0.5;entryY=0;entryDx=0;entryDy=0;" parent="1" source="hPBbEiaVJsbgbCTTvSSS-42" target="hPBbEiaVJsbgbCTTvSSS-46" edge="1">
          <mxGeometry width="100" height="100" relative="1" as="geometry">
            <mxPoint x="230" y="201" as="sourcePoint" />
            <mxPoint x="320" y="200" as="targetPoint" />
          </mxGeometry>
        </mxCell>
        <mxCell id="hPBbEiaVJsbgbCTTvSSS-57" value="" style="fontSize=12;html=1;endArrow=ERoneToMany;startArrow=ERmandOne;rounded=0;exitX=0.5;exitY=0;exitDx=0;exitDy=0;entryX=0.5;entryY=1;entryDx=0;entryDy=0;" parent="1" source="hPBbEiaVJsbgbCTTvSSS-3" target="hPBbEiaVJsbgbCTTvSSS-47" edge="1">
          <mxGeometry width="100" height="100" relative="1" as="geometry">
            <mxPoint x="320" y="220" as="sourcePoint" />
            <mxPoint x="320" y="300" as="targetPoint" />
          </mxGeometry>
        </mxCell>
        <mxCell id="hPBbEiaVJsbgbCTTvSSS-59" value="" style="rounded=0;whiteSpace=wrap;html=1;" parent="1" vertex="1">
          <mxGeometry y="840" width="820" height="270" as="geometry" />
        </mxCell>
        <mxCell id="hPBbEiaVJsbgbCTTvSSS-60" value="&lt;font style=&quot;font-size: 17px;&quot;&gt;ビュー&lt;/font&gt;" style="text;strokeColor=none;align=center;fillColor=none;html=1;verticalAlign=middle;whiteSpace=wrap;rounded=0;" parent="1" vertex="1">
          <mxGeometry x="10" y="850" width="70" height="40" as="geometry" />
        </mxCell>
        <mxCell id="hPBbEiaVJsbgbCTTvSSS-61" value="展示一覧ビュー" style="swimlane;childLayout=stackLayout;horizontal=1;startSize=30;horizontalStack=0;rounded=1;fontSize=14;fontStyle=0;strokeWidth=2;resizeParent=0;resizeLast=1;shadow=0;dashed=0;align=center;" parent="1" vertex="1">
          <mxGeometry x="100" y="905" width="190" height="140" as="geometry" />
        </mxCell>
        <mxCell id="hPBbEiaVJsbgbCTTvSSS-62" value="展示ID&#xa;実行プロジェクトID&#xa;繰り返し回数&#xa;URL&#xa;順序" style="align=left;strokeColor=none;fillColor=none;spacingLeft=4;fontSize=12;verticalAlign=top;resizable=0;rotatable=0;part=1;" parent="hPBbEiaVJsbgbCTTvSSS-61" vertex="1">
          <mxGeometry y="30" width="190" height="110" as="geometry" />
        </mxCell>
        <mxCell id="hPBbEiaVJsbgbCTTvSSS-64" value="プロジェクト手順ビュー" style="swimlane;childLayout=stackLayout;horizontal=1;startSize=30;horizontalStack=0;rounded=1;fontSize=14;fontStyle=0;strokeWidth=2;resizeParent=0;resizeLast=1;shadow=0;dashed=0;align=center;" parent="1" vertex="1">
          <mxGeometry x="360" y="905" width="206" height="140" as="geometry" />
        </mxCell>
        <mxCell id="hPBbEiaVJsbgbCTTvSSS-65" value="プロジェクトID&#xa;順序&#xa;Xpath&#xa;アクション名&#xa;アクション用文字列" style="align=left;strokeColor=none;fillColor=none;spacingLeft=4;fontSize=12;verticalAlign=top;resizable=0;rotatable=0;part=1;" parent="hPBbEiaVJsbgbCTTvSSS-64" vertex="1">
          <mxGeometry y="30" width="206" height="110" as="geometry" />
        </mxCell>
      </root>
    </mxGraphModel>
  </diagram>
</mxfile>
